<mxfile host="app.diagrams.net" modified="2023-12-14T01:58:56.154Z" agent="Mozilla/5.0 (Windows NT 10.0; Win64; x64) AppleWebKit/537.36 (KHTML, like Gecko) Chrome/120.0.0.0 Safari/537.36" version="22.1.8" etag="fPHtDVqO8mgrMg6FvTK7" type="github">
  <diagram name="Trang-1" id="B-Z4fJsD4nCX6SHQaJ-v">
    <mxGraphModel>
      <root>
        <mxCell id="0" />
        <mxCell id="1" parent="0" />
      </root>
    </mxGraphModel>
  </diagram>
</mxfile>
